PathFileType	4	(X/Y/Z)	Run_500 02
DataRate	CameraRate	NumFrames	NumMarkers	Units	OrigDataRate	OrigDataStartFrame	OrigNumFrames
100	100	4	42	mm	100	133	128
Frame#	Time	RASI			RPSI			RTH1			RTH2			RTH3			LTH1			LTH2			LTH3			RTB1			RTB2			RTB3			LTB1			LTB2			LTB3			RCAL			RTOE			RMT5			LCAL			LTOE			LMT5			LACR			RACR			CLAV			C7			RUA1			RUA2			RUA3			RLEL			LUA1			LUA2			LUA3			LLEL			LMEL			RFAsuperior			RFAradius			RFAulna			LFAsuperior			LFAradius			LPSI			RMEL			LFAulna			LASI			
		X1	Y1	Z1	X2	Y2	Z2	X3	Y3	Z3	X4	Y4	Z4	X5	Y5	Z5	X6	Y6	Z6	X7	Y7	Z7	X8	Y8	Z8	X9	Y9	Z9	X10	Y10	Z10	X11	Y11	Z11	X12	Y12	Z12	X13	Y13	Z13	X14	Y14	Z14	X15	Y15	Z15	X16	Y16	Z16	X17	Y17	Z17	X18	Y18	Z18	X19	Y19	Z19	X20	Y20	Z20	X21	Y21	Z21	X22	Y22	Z22	X23	Y23	Z23	X24	Y24	Z24	X25	Y25	Z25	X26	Y26	Z26	X27	Y27	Z27	X28	Y28	Z28	X29	Y29	Z29	X30	Y30	Z30	X31	Y31	Z31	X32	Y32	Z32	X33	Y33	Z33	X34	Y34	Z34	X35	Y35	Z35	X36	Y36	Z36	X37	Y37	Z37	X38	Y38	Z38	X39	Y39	Z39	X40	Y40	Z40	X41	Y41	Z41	X42	Y42	Z42	

117	1.71	1018.599469	1071.189808	-230.590387	873.416908	1125.218974	-325.089273	966.470856	971.7465079999999	-172.122569	1012.110182	826.577039	-204.071242	1147.693241	744.132643	-208.529293	961.238514	912.891509	-527.890329	814.404127	822.987645	-486.158709	787.732159	681.992088	-473.545716	1254.719993	522.7069279999999	-272.320985	1167.456027	487.504413	-204.424689	1195.762975	342.167411	-287.582179	680.473102	472.252092	-402.471396	552.253247	452.708921	-467.659857	505.213597	340.666128	-404.578959	1056.694878	226.455364	-292.716166	1294.272276	183.28509	-314.432275	1243.333913	157.046607	-220.930759	358.162579	372.425058	-410.086978	379.547331	145.150254	-342.983927	336.714709	157.471813	-444.578323	1013.593259	1555.033755	-524.252898	957.198218	1542.687054	-208.887202	1043.041501	1506.408951	-318.343386	931.160692	1567.483037	-379.710355	818.101055	1504.359836	-195.437198	819.977356	1447.388786	-135.979093	714.767638	1424.716072	-126.92397	650.459221	1390.650106	-113.456379	941.667024	1444.315298	-595.865871	984.6841879999999	1372.061732	-608.469055	924.869987	1296.827872	-642.786482	924.739605	1227.152811	-659.088598	897.660901	1205.701165	-570.450293	703.949125	1302.828722	-76.97426299999999	849.972521	1198.86134	-100.905363	795.948516	1165.877688	-75.142539	1002.287405	1228.122055	-630.30642	1107.332262	1341.862027	-523.4569	897.615282	1117.577286	-438.721826	666.464986	1348.417251	-192.438485	1146.697979	1281.992437	-534.723689	1063.771426	1047.5044	-467.67028	
118	1.72	1017.227044	1073.091495	-230.282801	872.60685	1125.778226	-325.379441	963.781972	971.5883700000001	-171.92299	1007.465971	824.8077950000001	-202.91386	1140.18187	738.063187	-207.642925	965.265549	913.123567	-526.1006159999999	818.974797	821.547465	-487.153962	794.6060680000001	679.285665	-472.873816	1257.583587	516.333386	-273.57296	1175.250021	471.758483	-205.266964	1217.804889	331.127816	-291.345035	676.574665	475.243375	-401.144352	548.9608909999999	465.15183	-470.272959	490.090464	359.641365	-406.861963	1091.353678	202.566935	-296.390102	1330.853411	183.426824	-325.648637	1285.645307	146.782645	-233.077338	343.895427	403.196335	-418.175103	350.12016	176.409138	-346.017442	312.525778	189.062581	-449.921584	1016.618724	1556.975511	-523.62346	957.670199	1543.969334	-208.557504	1044.395262	1508.124329	-317.44944	933.064531	1569.516361	-379.48591	818.005588	1505.57394	-196.198164	819.500503	1448.616069	-137.332819	713.842627	1427.143907	-130.253163	649.621475	1392.160694	-117.377951	945.168261	1446.853074	-596.3425089999999	987.7900990000001	1374.675952	-609.159365	928.286879	1299.723748	-644.943259	927.855891	1230.080414	-661.679966	899.518445	1208.133954	-573.29582	704.111097	1304.992539	-80.63494799999999	852.0977799999999	1203.896107	-103.402059	798.525279	1169.020822	-79.453954	1005.079136	1231.360223	-631.17252	1106.375203	1345.666699	-521.357606	897.235993	1119.322394	-438.602627	666.673919	1349.716372	-195.394317	1146.922329	1286.636064	-532.942051	1063.364137	1049.281451	-467.645326	
119	1.73	1015.434536	1074.788123	-230.383358	871.333929	1124.997053	-325.90467	961.804987	971.85723	-171.040458	1002.003036	822.185816	-201.624214	1130.45918	729.931574	-206.781277	969.729798	911.865057	-524.050643	824.616632	817.7078760000001	-488.073837	803.690121	674.142345	-471.625898	1257.272254	508.672355	-275.187181	1180.253792	456.423693	-206.947275	1235.432179	320.987229	-295.304797	675.588715	476.705351	-400.49102	548.348694	478.794724	-472.088824	478.51146	380.014736	-409.769979	1121.238048	183.560789	-299.275509	1359.870223	182.594905	-337.912089	1321.112064	137.177942	-246.315702	333.146571	436.164546	-423.793378	327.148765	209.226011	-352.145452	293.233522	224.184137	-457.594703	1019.539628	1558.242014	-522.803528	958.7620460000001	1544.457072	-208.211467	1045.837202	1508.747385	-316.823957	935.182205	1570.874025	-379.303392	818.240258	1505.632997	-196.64833	819.743816	1448.699554	-138.385524	713.951676	1427.516754	-132.738372	650.032274	1391.472344	-120.224754	948.316766	1449.062443	-596.6504660000001	990.511304	1376.643261	-609.62707	931.3075219999999	1302.140188	-646.87092	930.134107	1232.672339	-663.9499510000001	900.48852	1210.263303	-575.849773	705.899218	1305.060219	-83.422515	855.779182	1206.982505	-105.618254	802.854872	1170.353635	-83.02616500000001	1007.096089	1232.78576	-632.145514	1106.654233	1345.370972	-518.835075	896.371157	1119.70757	-438.729634	668.073438	1348.835342	-197.376907	1147.608648	1286.806994	-532.0090269999999	1062.471689	1049.688199	-467.861274	
120	1.74	1013.707704	1075.987115	-230.900314	869.889039	1123.196649	-326.640157	960.688742	971.7897369999999	-170.096466	995.793558	818.551217	-200.647861	1118.792791	719.989854	-206.211502	973.930618	909.566251	-522.133315	830.763679	812.237174	-488.399558	813.37523	667.953877	-469.957451	1254.038379	500.396718	-277.168553	1181.784334	442.273443	-209.581387	1247.871205	311.986532	-299.024791	677.808952	476.774815	-400.869721	551.122489	493.396045	-472.872313	471.851885	400.608288	-413.685664	1144.40995	169.391997	-301.444303	1380.464793	180.184392	-350.440907	1347.99018	128.425963	-259.43686	329.751399	470.275961	-426.466957	309.818291	241.998102	-362.46681	277.472286	262.936769	-467.680076	1022.354923	1558.669534	-521.6475820000001	960.443357	1543.884512	-207.777699	1047.237968	1508.071924	-316.414642	937.284706	1571.325367	-379.027679	818.920262	1504.587874	-196.917007	820.660196	1447.623809	-139.09343	715.007056	1425.851953	-134.214794	651.5361810000001	1388.604251	-121.890553	951.030533	1450.751239	-596.779883	992.676468	1377.963763	-609.857391	933.5906629999999	1304.156046	-648.455658	931.417726	1234.977899	-665.975355	900.554116	1212.214786	-578.4300459999999	709.125656	1303.062852	-85.246706	860.910547	1208.314103	-107.457914	808.797973	1170.07035	-85.69373	1008.049069	1232.73305	-633.260125	1108.147955	1341.281949	-516.319286	895.484513	1118.443007	-439.156561	670.404837	1346.058428	-198.951683	1148.418007	1282.489436	-531.514787	1061.552698	1048.447931	-468.373825	
